{"accessors":[{"bufferView":2,"componentType":5126,"count":61309,"max":[4.0256838798522949,4.9021968841552734,0.77957701683044434],"min":[-0.61234700679779053,-2.0876541137695312,-0.9182010293006897],"type":"VEC3"},{"bufferView":2,"byteOffset":735708,"componentType":5126,"count":61309,"max":[1,1,1],"min":[-1,-1,-1],"type":"VEC3"},{"bufferView":1,"componentType":5126,"count":61309,"max":[0.99426800012588501,0.99932700395584106],"min":[0.00056199997197836637,0.0037050000391900539],"type":"VEC2"},{"bufferView":3,"componentType":5126,"count":61309,"max":[0.99992519617080688,1,1,1],"min":[-0.99999994039535522,-0.99999994039535522,-0.99999994039535522,-1],"type":"VEC4"},{"bufferView":0,"componentType":5125,"count":329820,"max":[61308],"min":[0],"type":"SCALAR"}],"asset":{"generator":"Sketchfab (OSG glTF plugin)","version":"2.0"},"bufferViews":[{"buffer":0,"byteLength":1319280,"byteOffset":0,"name":"ScalarBufferView","target":34962},{"buffer":0,"byteLength":490472,"byteOffset":1319280,"byteStride":8,"name":"Vec2BufferView","target":34962},{"buffer":0,"byteLength":1471416,"byteOffset":1809752,"byteStride":12,"name":"Vec3BufferView","target":34962},{"buffer":0,"byteLength":980944,"byteOffset":3281168,"byteStride":16,"name":"Vec4BufferView","target":34962}],"buffers":[{"byteLength":4262112,"uri":"scene.bin"}],"extensionsRequired":["KHR_materials_pbrSpecularGlossiness"],"extensionsUsed":["KHR_materials_pbrSpecularGlossiness"],"images":[{"uri":"textures\/material_0_diffuse.jpeg"}],"materials":[{"doubleSided":true,"emissiveFactor":[0,0,0],"extensions":{"KHR_materials_pbrSpecularGlossiness":{"diffuseFactor":[1,1,1,1],"diffuseTexture":{"index":0,"texCoord":0},"glossinessFactor":0,"specularFactor":[0,0,0]}},"name":"material_0","occlusionFactor":1}],"meshes":[{"primitives":[{"attributes":{"NORMAL":1,"POSITION":0,"TANGENT":3,"TEXCOORD_0":2},"indices":4,"material":0,"mode":4}]}],"nodes":[{"children":[1],"name":"RootNode (gltf orientation matrix)","rotation":[-0.70710678118654746,-0,-0,0.70710678118654757]},{"children":[2],"name":"RootNode (model correction matrix)"},{"children":[3],"name":"model.obj.cleaner.gles"},{"mesh":0,"name":""}],"samplers":[{"magFilter":9729,"minFilter":9987,"wrapS":10497,"wrapT":10497}],"scene":0,"scenes":[{"name":"OSG_Scene","nodes":[0]}],"textures":[{"sampler":0,"source":0}]}
