{
  "accessors": [
    {
      "bufferView": 2,
      "componentType": 5126,
      "count": 473,
      "max": [
        0.48375898599624634,
        -0.13225999474525452,
        -0.11743199825286865
      ],
      "min": [
        -0.48375898599624634,
        -0.59023898839950562,
        -0.3905549943447113
      ],
      "type": "VEC3"
    },
    {
      "bufferView": 2,
      "byteOffset": 5676,
      "componentType": 5126,
      "count": 473,
      "max": [
        0.99184471368789673,
        0.9581068754196167,
        0.99966675043106079
      ],
      "min": [
        -0.99184471368789673,
        -0.9973263144493103,
        -0.99917638301849365
      ],
      "type": "VEC3"
    },
    {
      "bufferView": 1,
      "componentType": 5126,
      "count": 473,
      "max": [
        0.65090000629425049,
        0.99550002813339233
      ],
      "min": [
        0.014200000092387199,
        0.40099999308586121
      ],
      "type": "VEC2"
    },
    {
      "bufferView": 3,
      "componentType": 5126,
      "count": 473,
      "max": [
        0.99851900339126587,
        0.94999498128890991,
        0.99958598613739014,
        1
      ],
      "min": [
        -0.99851900339126587,
        -0.97629797458648682,
        -0.9987030029296875,
        -1
      ],
      "type": "VEC4"
    },
    {
      "bufferView": 0,
      "componentType": 5125,
      "count": 2328,
      "max": [
        472
      ],
      "min": [
        0
      ],
      "type": "SCALAR"
    },
    {
      "bufferView": 2,
      "byteOffset": 11352,
      "componentType": 5126,
      "count": 475,
      "max": [
        0.51400798559188843,
        -0.052298199385404587,
        0.30043798685073853
      ],
      "min": [
        -0.51400798559188843,
        -0.5522339940071106,
        -0.057266499847173691
      ],
      "type": "VEC3"
    },
    {
      "bufferView": 2,
      "byteOffset": 17052,
      "componentType": 5126,
      "count": 475,
      "max": [
        0.99758732318878174,
        0.98643010854721069,
        0.99389916658401489
      ],
      "min": [
        -0.99758732318878174,
        -0.98434072732925415,
        -0.99865823984146118
      ],
      "type": "VEC3"
    },
    {
      "bufferView": 1,
      "byteOffset": 3784,
      "componentType": 5126,
      "count": 475,
      "max": [
        0.65090000629425049,
        0.99550002813339233
      ],
      "min": [
        0.014200000092387199,
        0.40099999308586121
      ],
      "type": "VEC2"
    },
    {
      "bufferView": 3,
      "byteOffset": 7568,
      "componentType": 5126,
      "count": 475,
      "max": [
        0.99867397546768188,
        0.90637302398681641,
        0.99301600456237793,
        1
      ],
      "min": [
        -0.99867397546768188,
        -0.99809002876281738,
        -0.96279597282409668,
        -1
      ],
      "type": "VEC4"
    },
    {
      "bufferView": 0,
      "byteOffset": 9312,
      "componentType": 5125,
      "count": 2328,
      "max": [
        474
      ],
      "min": [
        0
      ],
      "type": "SCALAR"
    },
    {
      "bufferView": 2,
      "byteOffset": 22752,
      "componentType": 5126,
      "count": 475,
      "max": [
        0.64408701658248901,
        0.22710500657558441,
        -0.38294699788093567
      ],
      "min": [
        -0.64408701658248901,
        -0.48675000667572021,
        -1
      ],
      "type": "VEC3"
    },
    {
      "bufferView": 2,
      "byteOffset": 28452,
      "componentType": 5126,
      "count": 475,
      "max": [
        0.99965077638626099,
        0.9983828067779541,
        0.99453449249267578
      ],
      "min": [
        -0.99965077638626099,
        -0.99508434534072876,
        -0.99224686622619629
      ],
      "type": "VEC3"
    },
    {
      "bufferView": 1,
      "byteOffset": 7584,
      "componentType": 5126,
      "count": 475,
      "max": [
        0.65090000629425049,
        0.99550002813339233
      ],
      "min": [
        0.014200000092387199,
        0.40099999308586121
      ],
      "type": "VEC2"
    },
    {
      "bufferView": 3,
      "byteOffset": 15168,
      "componentType": 5126,
      "count": 475,
      "max": [
        0.99943500757217407,
        0.92208302021026611,
        0.9994170069694519,
        1
      ],
      "min": [
        -0.99901497364044189,
        -0.99857598543167114,
        -0.99623000621795654,
        -1
      ],
      "type": "VEC4"
    },
    {
      "bufferView": 0,
      "byteOffset": 18624,
      "componentType": 5125,
      "count": 2328,
      "max": [
        474
      ],
      "min": [
        0
      ],
      "type": "SCALAR"
    },
    {
      "bufferView": 2,
      "byteOffset": 34152,
      "componentType": 5126,
      "count": 524,
      "max": [
        0.66901898384094238,
        0.23464000225067139,
        1
      ],
      "min": [
        -0.66901898384094238,
        -0.57528001070022583,
        0.13168700039386749
      ],
      "type": "VEC3"
    },
    {
      "bufferView": 2,
      "byteOffset": 40440,
      "componentType": 5126,
      "count": 524,
      "max": [
        0.99781590700149536,
        0.98892652988433838,
        0.97166401147842407
      ],
      "min": [
        -0.99781590700149536,
        -0.99118804931640625,
        -0.99448221921920776
      ],
      "type": "VEC3"
    },
    {
      "bufferView": 1,
      "byteOffset": 11384,
      "componentType": 5126,
      "count": 524,
      "max": [
        0.73199999332427979,
        0.99550002813339233
      ],
      "min": [
        0.014200000092387199,
        0.40099999308586121
      ],
      "type": "VEC2"
    },
    {
      "bufferView": 3,
      "byteOffset": 22768,
      "componentType": 5126,
      "count": 524,
      "max": [
        0.99884498119354248,
        0.89338302612304688,
        0.99139201641082764,
        1
      ],
      "min": [
        -0.99993902444839478,
        -0.99237102270126343,
        -0.99818599224090576,
        -1
      ],
      "type": "VEC4"
    },
    {
      "bufferView": 0,
      "byteOffset": 27936,
      "componentType": 5125,
      "count": 2580,
      "max": [
        523
      ],
      "min": [
        0
      ],
      "type": "SCALAR"
    },
    {
      "bufferView": 2,
      "byteOffset": 46728,
      "componentType": 5126,
      "count": 982,
      "max": [
        0.43290001153945923,
        0.59023898839950562,
        0.28725200891494751
      ],
      "min": [
        -0.43290001153945923,
        -0.4065299928188324,
        -0.87265199422836304
      ],
      "type": "VEC3"
    },
    {
      "bufferView": 2,
      "byteOffset": 58512,
      "componentType": 5126,
      "count": 982,
      "max": [
        0.99828594923019409,
        0.9999995231628418,
        0.9970213770866394
      ],
      "min": [
        -0.99828594923019409,
        -0.99770569801330566,
        -0.99966973066329956
      ],
      "type": "VEC3"
    },
    {
      "bufferView": 1,
      "byteOffset": 15576,
      "componentType": 5126,
      "count": 982,
      "max": [
        0.98729997873306274,
        0.82300001382827759
      ],
      "min": [
        0.27610000967979431,
        0.010499999858438969
      ],
      "type": "VEC2"
    },
    {
      "bufferView": 3,
      "byteOffset": 31152,
      "componentType": 5126,
      "count": 982,
      "max": [
        0.99828797578811646,
        0.99780499935150146,
        0.99380499124526978,
        1
      ],
      "min": [
        -0.99960601329803467,
        -0.83541101217269897,
        -0.99968397617340088,
        -1
      ],
      "type": "VEC4"
    },
    {
      "bufferView": 0,
      "byteOffset": 38256,
      "componentType": 5125,
      "count": 5388,
      "max": [
        981
      ],
      "min": [
        0
      ],
      "type": "SCALAR"
    }
  ],
  "asset": {
    "generator": "Sketchfab (OSG glTF plugin)",
    "version": "2.0"
  },
  "bufferViews": [
    {
      "buffer": 0,
      "byteLength": 59808,
      "byteOffset": 0,
      "name": "ScalarBufferView",
      "target": 34963
    },
    {
      "buffer": 0,
      "byteLength": 23432,
      "byteOffset": 59808,
      "byteStride": 8,
      "name": "Vec3BufferView",
      "target": 34962
    },
    {
      "buffer": 0,
      "byteLength": 70296,
      "byteOffset": 83240,
      "byteStride": 12,
      "name": "Vec4BufferView",
      "target": 34962
    },
    {
      "buffer": 0,
      "byteLength": 46864,
      "byteOffset": 153536,
      "byteStride": 16,
      "name": "MatrixBufferView",
      "target": 34962
    }
  ],
  "buffers": [
    {
      "byteLength": 200400,
      "uri": "scene.bin"
    }
  ],
  "extensionsRequired": [
    "KHR_materials_pbrSpecularGlossiness"
  ],
  "extensionsUsed": [
    "KHR_materials_pbrSpecularGlossiness"
  ],
  "images": [
    {
      "uri": "textures/default_diffuse.jpeg"
    }
  ],
  "materials": [
    {
      "doubleSided": true,
      "emissiveFactor": [
        0,
        0,
        0
      ],
      "extensions": {
        "KHR_materials_pbrSpecularGlossiness": {
          "diffuseFactor": [
            1,
            1,
            1,
            1
          ],
          "diffuseTexture": {
            "index": 0,
            "texCoord": 0
          },
          "glossinessFactor": 0,
          "specularFactor": [
            0,
            0,
            0
          ]
        }
      },
      "name": "default",
      "occlusionFactor": 1
    }
  ],
  "meshes": [
    {
      "primitives": [
        {
          "attributes": {
            "NORMAL": 1,
            "POSITION": 0,
            "TANGENT": 3,
            "TEXCOORD_0": 2
          },
          "indices": 4,
          "material": 0,
          "mode": 4
        }
      ]
    },
    {
      "primitives": [
        {
          "attributes": {
            "NORMAL": 6,
            "POSITION": 5,
            "TANGENT": 8,
            "TEXCOORD_0": 7
          },
          "indices": 9,
          "material": 0,
          "mode": 4
        }
      ]
    },
    {
      "primitives": [
        {
          "attributes": {
            "NORMAL": 11,
            "POSITION": 10,
            "TANGENT": 13,
            "TEXCOORD_0": 12
          },
          "indices": 14,
          "material": 0,
          "mode": 4
        }
      ]
    },
    {
      "primitives": [
        {
          "attributes": {
            "NORMAL": 16,
            "POSITION": 15,
            "TANGENT": 18,
            "TEXCOORD_0": 17
          },
          "indices": 19,
          "material": 0,
          "mode": 4
        }
      ]
    },
    {
      "primitives": [
        {
          "attributes": {
            "NORMAL": 21,
            "POSITION": 20,
            "TANGENT": 23,
            "TEXCOORD_0": 22
          },
          "indices": 24,
          "material": 0,
          "mode": 4
        }
      ]
    }
  ],
  "nodes": [
    {
      "children": [
        1
      ],
      "name": "RootNode (gltf orientation matrix)",
      "rotation": [
        -0.70710678118654746,
        -0,
        -0,
        0.70710678118654757
      ]
    },
    {
      "children": [
        2
      ],
      "name": "RootNode (model correction matrix)"
    },
    {
      "children": [
        3,
        5,
        7,
        9,
        11
      ],
      "matrix": [
        1,
        0,
        0,
        0,
        0,
        -4.3711390063094768e-08,
        0.999999999999999,
        0,
        0,
        -0.999999999999999,
        -4.3711390063094768e-08,
        0,
        0,
        0,
        0,
        1
      ],
      "name": "Collada visual scene group"
    },
    {
      "children": [
        4
      ],
      "name": "g"
    },
    {
      "mesh": 0,
      "name": ""
    },
    {
      "children": [
        6
      ],
      "name": "g"
    },
    {
      "mesh": 1,
      "name": ""
    },
    {
      "children": [
        8
      ],
      "name": "g"
    },
    {
      "mesh": 2,
      "name": ""
    },
    {
      "children": [
        10
      ],
      "name": "g"
    },
    {
      "mesh": 3,
      "name": ""
    },
    {
      "children": [
        12
      ],
      "name": "g"
    },
    {
      "mesh": 4,
      "name": ""
    }
  ],
  "samplers": [
    {
      "magFilter": 9729,
      "minFilter": 9987,
      "wrapS": 10497,
      "wrapT": 10497
    }
  ],
  "scene": 0,
  "scenes": [
    {
      "name": "OSG_Scene",
      "nodes": [
        0
      ]
    }
  ],
  "textures": [
    {
      "sampler": 0,
      "source": 0
    }
  ]
}

